<svg xmlns="http://www.w3.org/2000/svg" data-name="Layer 1" viewBox="0 0 128 128"><path d="M73.24 81.62a15.42 15.42 0 0 1-1-4 14.09 14.09 0 0 1-10.42 4.42c-7.43 0-13.33-4.07-13.33-11.42 0-10.37 10.6-12.33 17.42-12.33h5.77v-2.67c0-3.13-2.74-5.91-6.7-5.91-3.3 0-6.27 1.92-6.27 4.62h-9.5A8.25 8.25 0 0 1 51 48.77a13.76 13.76 0 0 1 5.89-4.52 21.56 21.56 0 0 1 8.56-1.64q7.2 0 11.42 3.62a11.51 11.51 0 0 1 4.34 9.57v16.87a20.21 20.21 0 0 0 1.94 9Zm-9.5-6.83c3.2 0 7.06-2.24 8-4.14V64h-4.83c-5.2 0-8.75 2.27-8.75 5.88 0 3.82 2.84 4.91 5.58 4.91Z"/><path d="M64 116.29A52.29 52.29 0 1 1 116.29 64 52.34 52.34 0 0 1 64 116.29Zm0-96.73A44.44 44.44 0 1 0 108.44 64 44.48 44.48 0 0 0 64 19.56Z"/></svg>