<svg xmlns="http://www.w3.org/2000/svg" data-name="Layer 1" viewBox="0 0 128 128"><path d="M87.5 64c16.1-11.14 27.73-22.44 24.64-27.79-2-3.44-9.14-2.84-18.7.25a4.94 4.94 0 0 0-8.38 3.08c-3 1.22-6.11 2.6-9.31 4.11C74.15 24.13 70.18 8.41 64 8.41S53.85 24.13 52.25 43.65c-17.7-8.37-33.3-12.8-36.39-7.44-1.86 3.27 1.73 8.79 8.5 15.08a5.13 5.13 0 0 0-.36 1.92 5.3 5.3 0 0 0 5.3 5.31 5.24 5.24 0 0 0 2.7-.76c2.64 2.06 5.49 4.15 8.51 6.24C24.4 75.14 12.77 86.44 15.86 91.79c.93 1.61 3 2.34 5.9 2.34 6.76 0 18.11-3.93 30.49-9.78.31 3.85.72 7.55 1.22 11a5.3 5.3 0 0 0 1.79 9.65c2.09 8.83 5 14.57 8.74 14.57 6.18 0 10.15-15.73 11.75-35.24 12.38 5.85 23.73 9.78 30.49 9.78 2.91 0 5-.73 5.9-2.34 3.09-5.33-8.54-16.63-24.64-27.77Zm-2-21.87A5 5 0 0 0 95 40a4.88 4.88 0 0 0-.19-1.27c5.1-1.61 9.1-2.39 11.73-2.39 1.85 0 3 .38 3.45 1.11 1.64 2.86-7 12.85-24.69 25-2.84-1.91-5.79-3.81-8.8-5.66-.1-3.54-.27-7-.5-10.45 3.33-1.59 6.53-3 9.49-4.21ZM69 72.68q-2.55 1.47-5 2.82-2.46-1.35-5-2.82t-5-2.93V64c0-2 0-3.88.06-5.75q2.4-1.45 5-2.93c1.7-1 3.37-1.91 5-2.81 1.64.9 3.31 1.83 5 2.81s3.35 2 4.95 2.93C74 60.12 74 62 74 64s0 3.88-.06 5.75q-2.38 1.46-4.94 2.93Zm4.87.07c-.09 2.68-.22 5.24-.38 7.7-2.22-1.09-4.5-2.26-6.86-3.52 1.22-.67 2.43-1.36 3.64-2.06s2.41-1.4 3.61-2.12Zm-12.51 4.18q-3.54 1.89-6.86 3.52c-.16-2.46-.29-5-.38-7.7 1.2.72 2.4 1.43 3.6 2.12s2.42 1.39 3.64 2.06Zm-9.88-8.75C49.21 66.77 47.06 65.37 45 64c2.05-1.37 4.2-2.77 6.47-4.18V64c0 1.39-.01 2.79.01 4.18Zm2.64-12.93q.14-4 .38-7.69c2.22 1.09 4.5 2.25 6.85 3.51a260.812 260.812 0 0 0-7.23 4.18Zm12.53-4.18c2.35-1.26 4.63-2.42 6.85-3.51q.24 3.69.38 7.69c-1.2-.72-2.4-1.43-3.6-2.12s-2.42-1.38-3.63-2.06Zm9.87 8.75c2.27 1.41 4.42 2.81 6.48 4.18-2 1.37-4.2 2.77-6.47 4.18V64c0-1.39.01-2.79-.01-4.18ZM64 11c3.29 0 7.61 12.51 9.3 33.87-3.07 1.5-6.19 3.11-9.3 4.8-3.11-1.69-6.23-3.3-9.3-4.8C56.39 23.46 60.71 11 64 11ZM33.83 56a5.28 5.28 0 0 0-7.95-6.76c-6.11-5.74-8.81-10-7.83-11.71.43-.73 1.6-1.11 3.45-1.11 5.31 0 16.19 3.16 30.54 10-.23 3.41-.4 6.91-.5 10.45-3 1.85-6 3.75-8.8 5.66-3.28-2.32-6.26-4.53-8.91-6.59ZM18.05 90.53c-1.64-2.86 7-12.85 24.69-25 2.84 1.91 5.79 3.81 8.8 5.66.1 3.54.27 7 .5 10.45-19.34 9.22-32.34 11.74-33.99 8.89Zm46 26.52c-1.93 0-4.22-4.31-6.11-12.17a5.3 5.3 0 0 0-1.55-10.37H56q-.75-5.16-1.25-11.38c3.07-1.5 6.19-3.1 9.3-4.79 3.11 1.69 6.23 3.29 9.3 4.79-1.74 21.4-6.05 33.92-9.35 33.92Zm46-26.52c-1.65 2.85-14.65.33-34-8.89.23-3.41.4-6.91.5-10.45 3-1.85 6-3.75 8.8-5.66 17.56 12.15 26.24 22.14 24.65 25Z"/><circle cx="64" cy="64" r="6.09"/></svg>