<svg xmlns="http://www.w3.org/2000/svg" width="2000" height="2000" viewBox="0 0 2000 2000"><defs><mask id="0" x="0" y="0" width="2000" height="2000" maskUnits="userSpaceOnUse"><path fill="#fff" fill-rule="evenodd" d="m0 0l2000 0 0 2000-2000 0 0-2000"/></mask></defs><g mask="url(#0)"><path d="M1000,2000C448.6,2000,0,1551.4,0,1000S448.6,0,1000,0,2000,448.59,2000,1000,1551.4,2000,1000,2000" fill="#fff" fill-rule="evenodd"/></g><g fill-rule="evenodd"><path d="M1000,1439.84c-91.19,0-142.86-51.32-165.1-80.95,36.22-18.86,90.46-42.72,110.5-51.06,4.69-2,13.69.31,23.45,5.93,10,5.78,21.52,7.62,29.42,8.16a25,25,0,0,0,3.46,0c7.9-.54,19.42-2.38,29.39-8.15,9.77-5.63,18.77-7.91,23.48-5.94,20,8.34,74.18,32.16,110.39,51-22.38,29.58-74.32,81-165,81m214.6-111.65c-35.52-22.17-121.11-59.43-140.38-67.45h0c-20.19-8.39-43.88-5.34-68.53,8.84a20.46,20.46,0,0,1-5.68,1.3,20.24,20.24,0,0,1-5.67-1.3c-24.64-14.19-48.35-17.25-68.55-8.83-19.27,8-104.86,45.28-140.38,67.45a25.5,25.5,0,0,0-9.36,33c2.63,5.3,66,129.71,224,129.71s221.33-124.41,224-129.71a25.5,25.5,0,0,0-9.36-33"/><path d="M1351.39,829.23H1193.52a94.21,94.21,0,0,1,93.73-85.93h157.88a94.24,94.24,0,0,1-93.74,85.93M1471,692.29H1287.25c-80,0-145.1,65.1-145.1,145.11v17.33a25.51,25.51,0,0,0,25.51,25.51h183.73c80,0,145.1-65.09,145.1-145.1V717.8A25.51,25.51,0,0,0,1471,692.29"/><path d="M648.61,829.23a94.23,94.23,0,0,1-93.74-85.93H712.74a94.22,94.22,0,0,1,93.74,85.93Zm209.24,25.5V837.4c0-80-65.09-145.11-145.11-145.11H529a25.51,25.51,0,0,0-25.51,25.51v17.34c0,80,65.09,145.1,145.1,145.1H832.34a25.51,25.51,0,0,0,25.51-25.51Z"/><path d="M1073.52,1527.14H910.05a25.51,25.51,0,1,0,0,51h163.47a25.51,25.51,0,0,0,0-51"/><path d="M917.78,1367.68a25.5,25.5,0,0,0,25.5,25.5h113.44a25.51,25.51,0,0,0,0-51H943.28a25.51,25.51,0,0,0-25.5,25.51"/><path d="M1851.3,954.18h0L1736.92,821.78c-26.53-30.71-26.53-82.6,0-113.31l11.54-13.36,141.9,164.23A908.45,908.45,0,0,1,1901.31,1000c0,4-.09,7.93-.14,11.88Zm27,249.26-26.94-31.18,0,0-114.38-132.39c-26.53-30.7-26.53-82.6,0-113.3l11.54-13.37,148.79,172.22a899,899,0,0,1-19,118ZM1826,1361l-59.59-69h0l-29.51-34.16c-26.53-30.7-26.53-82.59,0-113.29l11.54-13.37L1862.29,1263A894.2,894.2,0,0,1,1826,1361Zm-71.9,132.65c-26.8-42.4-28.11-99.73-4.88-143.5l52.89,61.23a900.92,900.92,0,0,1-48,82.27ZM1603.93,1669V331a906.62,906.62,0,0,1,105.58,113.14l-11.18,12.95c-43.61,50.46-43.61,129.53,0,180l16.44,19-16.44,19c-43.61,50.46-43.61,129.53,0,180l16.43,19-16.43,19c-43.61,50.46-43.61,129.53,0,180l16.43,19-16.43,19c-43.61,50.46-43.61,129.53,0,180l16,18.48c-44.25,65-43.81,156.67,3.53,221.29a24.8,24.8,0,0,0,6.22,5.81A906.33,906.33,0,0,1,1603.93,1669Zm-51-1303.78a223.69,223.69,0,0,1-1.54,25.76C1400,253.66,1205.8,178.49,1000,178.49c-206,0-400,75.21-551.37,212.59a222.71,222.71,0,0,1-1.55-25.84v-77a901.29,901.29,0,0,1,1105.84,0ZM751.76,270.36a774.43,774.43,0,0,1,498.31.63c-72.68,66.12-160,102.3-248.8,102.3-89.17,0-176.68-36.4-249.51-102.93ZM1552.92,823v2.56c0,112-61.6,221.41-169,300.05a25.51,25.51,0,0,0,30.14,41.16c59.56-43.61,106.51-96,138.87-153.33v.29a661.54,661.54,0,0,1-180.45,455l-185.34,196.92a257,257,0,0,1-374.26,0L627.53,1468.8a661.49,661.49,0,0,1-180.45-455v-.29c32.35,57.32,79.31,109.72,138.87,153.33a25.51,25.51,0,1,0,30.14-41.16c-107.41-78.63-169-188-169-300.05V523.9c49.6,69.25,130.66,114.51,222.16,114.51h36c113.89,0,206.54,92.65,206.54,206.54v246.64a25.5,25.5,0,1,0,51,0V845c0-142-115.53-257.55-257.54-257.55h-36c-93.35,0-173.38-57.91-206.21-139.66C532.45,380.18,612.25,327.13,699,290.34c85.56,86.39,192.51,134,302.3,134,109.4,0,216-47.27,301.45-133.12A769,769,0,0,1,1537,447.7c-32.83,81.77-112.87,139.7-206.23,139.7h-36c-142,0-257.56,115.53-257.56,257.55v246.64a25.51,25.51,0,1,0,51,0V845c0-113.89,92.66-206.54,206.54-206.54h36c91.49,0,172.56-45.26,222.16-114.51Zm0,888.74q-20.39,15.87-41.71,30.56V1370.43a24.67,24.67,0,0,0-.37-3.66,708.7,708.7,0,0,0,42.08-87.38Zm-92.72,63.28q-22.65,13.49-46.14,25.68V1498.81a719.64,719.64,0,0,0,46.14-55.28Zm-97.15,50.08q-22.75,10-46.14,18.82V1602.27l46.14-49Zm-97.16,36.29a906.24,906.24,0,0,1-530.94.25V1657.36l40.77,43.32a308,308,0,0,0,448.55,0l41.62-44.22Zm-582-17.15q-23.38-8.76-46.14-18.77V1554.13l46.14,49Zm-97.15-43.1q-23.49-12.14-46.14-25.62v-330.9q21.58,28.52,46.14,55.09Zm-97.15-430.75v372.49q-21.74-15-42.55-31.14V1279.39a709.72,709.72,0,0,0,42.79,88.68,23,23,0,0,0-.24,2.36ZM396.07,823v846A905.76,905.76,0,0,1,276,1536.83a25,25,0,0,0,6.22-5.81c47.34-64.62,47.78-156.26,3.53-221.29l16-18.48c43.6-50.46,43.6-129.53,0-180l-16.45-19,16.45-19c43.6-50.47,43.6-129.54,0-180l-16.45-19,16.45-19c43.6-50.46,43.6-129.53,0-180l-16.45-19,16.45-19c43.6-50.46,43.6-129.53,0-180l-11.19-12.95A905.87,905.87,0,0,1,396.07,331ZM245.88,1493.69a896.31,896.31,0,0,1-48-82.27l28.38-32.86,24.51-28.37c23.23,43.78,21.91,101.1-4.88,143.5ZM137.71,1263l113.82-131.74,11.55,13.37c26.53,30.7,26.53,82.59,0,113.29l-29.51,34.16h0L174,1361A894.2,894.2,0,0,1,137.71,1263Zm-35-177.59L251.53,913.17l11.55,13.37c26.53,30.7,26.53,82.6,0,113.3l-30.84,35.7h0l-45.54,52.71-38,44h0l-27,31.2a900.64,900.64,0,0,1-19-118Zm-4-85.39a908.22,908.22,0,0,1,10.94-140.65l141.9-164.24,11.55,13.36c26.53,30.71,26.53,82.6,0,113.31l-30.84,35.7h0L98.84,1011.88c0-4-.15-7.91-.15-11.88ZM259.45,486.2l3.63,4.2c26.53,30.71,26.53,82.6,0,113.3L175.57,705l-43.15,49.94a897.36,897.36,0,0,1,127-268.74Zm1477.48,4.2,3.62-4.19a897,897,0,0,1,127,268.74l-16.28-18.84h0L1736.92,603.7c-26.53-30.7-26.53-82.59,0-113.3ZM1000,51C476.73,51,51,476.73,51,1000s425.72,949,949,949,949-425.72,949-949S1523.28,51,1000,51Z"/></g></svg>