<svg xmlns="http://www.w3.org/2000/svg" height="128" width="128" viewBox="0 0 128 128">
  <g>
    <path id="path1" transform="rotate(0,64,64) translate(8,8.8959789314157) scale(3.50000187754732,3.50000187754732)  " fill="#FC5600" d="M14.376611,12.217124C13.775625,12.718114,13.274615,13.318118,12.874619,14.11911L17.980631,19.426101C18.480635,18.925095,18.981644,18.224109,19.382646,17.323109z M24.216724,0.00070318601C25.525705,0.04563507 26.061523,2.2311528 25.188673,3.0061532 24.988661,3.2071415 24.888655,3.3071473 24.688671,3.5071433L28.692688,7.7121323 28.792694,7.6121419C29.894689,6.7111438 32.096697,6.7111438 31.996689,8.8131273 31.796707,11.21612 26.990684,13.018116 24.387674,13.018116L24.187662,9.8141306C25.188673,9.5141285,26.189686,9.1141365,27.09066,8.6131304L23.787666,5.1091436C23.586645,5.7101396 23.386663,6.4101346 23.286657,7.0111306 23.086643,8.5131252 23.286657,9.7141255 23.286657,9.7141255 23.386663,11.516122 23.586645,13.118122 23.386663,14.720106 22.886661,20.527095 18.681623,23.931092 12.974596,24.231078L13.074602,20.827098C13.875601,20.927089,15.177609,20.827098,16.478611,20.3271L12.07359,16.022105C11.973615,16.722113,11.973615,17.4231,11.973615,18.224109L11.973615,18.925095C11.973615,22.429082 12.273603,26.13308 10.872596,28.836076 10.171604,30.138058 9.0705852,31.339059 8.4695996,31.440057 6.4675764,31.840064 5.4655575,29.637067 6.8675722,28.536073 7.0675854,28.336078 7.167592,28.036074 7.3685817,27.83507L3.5635704,23.831086C2.762572,24.331084 2.3625456,24.732083 2.3625456,24.732083 2.162563,24.93208 1.8615667,25.032086 1.5615469,24.93208 -3.2444757,22.629094 4.264563,18.224109 7.6685709,18.725098L7.8685841,22.02909C6.8675722,22.229085,5.9665669,22.629094,5.1655683,22.930087L8.2695865,26.13308C8.9696025,24.131087 8.7695893,22.429082 8.7695893,22.429082 8.6695823,20.827098 8.4695996,18.925095 8.5695762,17.223105 8.9696025,11.21612 12.774613,7.6121419 18.881637,7.1111363L19.08165,10.615124C18.781629,10.615124,17.479622,10.715129,16.078615,11.21612L19.982654,15.321117C20.082632,14.820112 20.182638,13.719118 20.082632,12.41712 20.082632,10.615124 19.782642,8.8131273 19.882648,7.1111363 20.182638,3.8071457 21.38464,1.2041571 23.486669,0.20315287 23.586645,0.10316249 23.887672,0.0031566981 24.087656,0.0031565118 24.13147,3.1993952E-05 24.174499,-0.00074605285 24.216724,0.00070318601z" />
  </g>
</svg>
